<svg width="39" height="41" viewBox="0 0 39 41" fill="none" xmlns="http://www.w3.org/2000/svg">
<g clip-path="url(#clip0_36_217)">
<path d="M39.0001 20.4949C39.0001 31.8127 30.2707 40.9898 19.505 40.9898C15.9294 40.9898 12.5779 39.9758 9.69409 38.2039C17.5857 39.0642 22.8954 31.7512 27.0751 26.036L33.7878 30.6143L34.3626 28.8424C34.3626 28.8424 32.5504 25.8209 31.167 23.4754C29.9686 21.4372 34.46 14.8309 32.5894 13.5608C31.8879 13.0795 30.9039 13.7657 29.8322 14.7899C32.7258 11.9426 35.1517 9.67901 36.8665 11.1641C38.2304 13.9808 39.0001 17.1457 39.0001 20.4949Z" fill="#4D40CA"/>
<path d="M29.5304 5.92C22.0577 5.36691 12.773 10.4573 8.1744 20.2592C9.85989 9.12584 18.112 1.55677 27.2311 1.66944C24.318 0.348177 21.0348 -0.245878 17.5956 0.0921186C8.2426 1.03441 0.760212 9.06439 0.0587381 18.9175C-0.126373 21.4986 0.146422 23.9874 0.799183 26.3022C1.33503 27.9 2.25084 29.5183 3.54662 30.5733C10.8829 37.282 19.7585 30.0509 24.0258 23.9772L17.313 19.3989L18.6186 18.1186C18.6186 18.1186 21.9798 18.6205 24.5811 18.9892C25.8964 19.1736 27.7767 16.8588 29.4817 15.1586C29.5986 15.0459 29.7058 14.9332 29.8227 14.8308C29.8324 14.8206 29.8422 14.8206 29.8422 14.8103C32.7357 11.963 35.1617 9.69941 36.8764 11.1845C36.8666 11.1641 36.8569 11.1333 36.8374 11.1129C35.4539 8.15282 32.6578 6.15557 29.5304 5.92Z" fill="#4D40CA"/>
</g>
<defs>
<clipPath id="clip0_36_217">
<rect width="39" height="41" fill="white"/>
</clipPath>
</defs>
</svg>
