<svg width="32" height="32" viewBox="0 0 32 32" fill="none" xmlns="http://www.w3.org/2000/svg">
<g clip-path="url(#clip0_28_865)">
<path d="M0.937988 17.6965C1.12427 17.6965 1.32056 17.6973 1.52539 17.6982C1.74561 17.6992 1.97803 17.7004 2.22095 17.7004C3.55176 17.7004 5.19263 17.668 6.77588 17.4172C9.10693 17.0476 10.8127 16.2981 11.991 15.1252C13.1641 13.9575 13.759 12.4028 13.759 10.5042C13.759 8.69043 14.3918 7.2041 15.6938 5.96094C16.8242 4.88159 18.4597 4.00269 20.5544 3.34888C24.1226 2.23511 28.2378 2.00122 31.062 2.00122C31.5801 2.00122 32 1.5813 32 1.06299C32 0.544922 31.5801 0.125 31.062 0.125C28.1074 0.125 23.7891 0.373535 19.9954 1.55786C17.6226 2.29858 15.7393 3.32349 14.3982 4.604C12.729 6.19775 11.8828 8.18311 11.8828 10.5042C11.8828 11.9048 11.4851 12.9814 10.6672 13.7957C8.59863 15.8547 4.17578 15.8345 1.53418 15.822C1.32617 15.821 1.12695 15.8203 0.937988 15.8203C0.419922 15.8203 0 16.2402 0 16.7583C0 17.2764 0.419922 17.6965 0.937988 17.6965Z" fill="white"/>
<path d="M31.062 3.69043C28.8374 3.69043 25.6248 3.93945 22.9521 5.12671C19.8018 6.52612 18.1367 8.93604 18.1367 12.0962C18.1367 12.2092 18.1401 12.3276 18.1458 12.4512C16.5312 12.7959 15.3162 14.2327 15.3162 15.9485C15.3162 16.4172 15.4058 16.8728 15.5789 17.2969C14.8201 18.085 14.3843 19.1431 14.3843 20.2578C14.3843 21.7346 15.1389 23.0818 16.3555 23.8569C16.3557 24.2192 16.4097 24.6418 16.5479 25.0752C13.8315 27.5698 8.58618 28.8342 0.937988 28.8342C0.419922 28.8342 0 29.2542 0 29.7722C0 30.2903 0.419922 30.7105 0.937988 30.7105C8.95483 30.7105 14.4111 29.3921 17.5598 26.6868C18.4902 27.5605 19.7708 27.8789 20.9067 27.9627V30.9529C20.9067 31.4712 21.3267 31.8911 21.8447 31.8911C22.363 31.8911 22.783 31.4712 22.783 30.9529V27.9136C24.9431 27.6335 26.0596 26.6042 26.6277 25.7192C27.0149 25.1162 27.2239 24.4482 27.281 23.8904C28.5286 23.1209 29.3052 21.7563 29.3052 20.2578C29.3052 19.1431 28.8696 18.085 28.1108 17.2969C28.2839 16.8726 28.3735 16.4172 28.3735 15.9485C28.3735 14.1641 27.0598 12.6804 25.3486 12.4143C24.9617 10.8577 23.552 9.70068 21.8774 9.70068C21.3369 9.70068 20.8245 9.82178 20.3647 10.0374C20.8875 8.65894 21.9958 7.60425 23.7136 6.84131C25.0229 6.25977 27.3606 5.56641 31.0618 5.56641C31.5798 5.56641 32 5.14648 32 4.62842C32 4.11035 31.5801 3.69043 31.062 3.69043ZM21.8774 11.5769C22.8127 11.5769 23.5742 12.3364 23.5779 13.271L23.5767 13.3074C23.5715 13.5764 23.6824 13.835 23.8809 14.0168C24.0793 14.1987 24.3467 14.2866 24.614 14.2581C24.6758 14.2515 24.7373 14.2483 24.7969 14.2483C25.7344 14.2483 26.4973 15.011 26.4973 15.9485C26.4973 16.314 26.3831 16.6624 26.1667 16.9558C26.0159 17.1602 25.9546 17.4172 25.9966 17.6677C26.0388 17.9182 26.1807 18.1411 26.3899 18.2852C27.0405 18.7329 27.429 19.4705 27.429 20.2581C27.429 21.2227 26.8547 22.0884 25.9661 22.4636C25.7324 22.5625 25.5486 22.7515 25.4568 22.9878C25.3848 23.1726 25.3738 23.374 25.4229 23.5632C25.4263 23.7595 25.3362 24.4414 24.7976 25.0325C24.1458 25.7485 23.0674 26.1116 21.593 26.1116C20.1951 26.1116 19.1821 25.77 18.6636 25.1238C18.1978 24.5432 18.2129 23.822 18.2451 23.6343C18.3174 23.4251 18.3137 23.1958 18.2329 22.9878C18.1409 22.7515 17.957 22.5625 17.7234 22.4636C16.8347 22.0884 16.2605 21.2224 16.2605 20.2578C16.2605 19.4702 16.6489 18.7327 17.2996 18.2852C17.509 18.1409 17.6509 17.9182 17.6931 17.6675C17.7351 17.417 17.6736 17.1602 17.5229 16.9556C17.3066 16.6621 17.1924 16.314 17.1924 15.9485C17.1924 15.011 17.9551 14.248 18.8928 14.248C18.9653 14.248 19.0388 14.2532 19.1177 14.2637C19.3884 14.2991 19.6619 14.2151 19.8657 14.033C20.0696 13.8506 20.1836 13.5886 20.1782 13.3152L20.177 13.273C20.1794 12.3374 20.9414 11.5769 21.8774 11.5769Z" fill="white"/>
<path d="M3.04883 12.0679H7.27026C8.95142 12.0679 10.3191 10.7 10.3191 9.0188C10.3191 7.37427 9.01025 6.02954 7.37939 5.97192C6.82959 5.10693 5.86987 4.56299 4.80786 4.56299C3.69971 4.56299 2.69385 5.16333 2.15894 6.10205C0.89624 6.48486 0 7.65454 0 9.0188C0 10.7 1.36768 12.0679 3.04883 12.0679ZM2.91675 7.854C3.27661 7.81396 3.5813 7.57056 3.69971 7.22827C3.86304 6.75635 4.30835 6.43921 4.80786 6.43921C5.31714 6.43921 5.76538 6.7644 5.92285 7.24829C6.07227 7.70728 6.5459 7.97778 7.0166 7.87427C7.10059 7.85571 7.18604 7.84619 7.27051 7.84619C7.91699 7.84619 8.44312 8.37231 8.44312 9.0188C8.44312 9.66553 7.91699 10.1917 7.27051 10.1917H3.04883C2.40234 10.1917 1.87622 9.66553 1.87622 9.0188C1.87622 8.42065 2.32349 7.91992 2.91675 7.854Z" fill="white"/>
</g>
<defs>
<clipPath id="clip0_28_865">
<rect width="32" height="32" fill="white"/>
</clipPath>
</defs>
</svg>
