<svg width="32" height="32" viewBox="0 0 32 32" fill="none" xmlns="http://www.w3.org/2000/svg">
<g clip-path="url(#clip0_28_898)">
<path d="M15.9982 26.7109C15.3952 26.7109 14.9062 27.1998 14.9062 27.8029V30.9076C14.9062 31.5107 15.3952 31.9996 15.9982 31.9996C16.6014 31.9996 17.0902 31.5107 17.0902 30.9076V27.8029C17.0902 27.1997 16.6013 26.7109 15.9982 26.7109Z" fill="white"/>
<path d="M15.9982 5.28941C16.6014 5.28941 17.0902 4.8005 17.0902 4.19744V1.09246C17.0902 0.4894 16.6014 0.000488281 15.9982 0.000488281C15.3952 0.000488281 14.9062 0.4894 14.9062 1.09246V4.19744C14.9062 4.8005 15.3952 5.28941 15.9982 5.28941Z" fill="white"/>
<path d="M6.88195 23.5735L4.68578 25.7685C4.25918 26.1948 4.25904 26.8862 4.68534 27.3127C4.89864 27.526 5.17819 27.6327 5.45773 27.6327C5.73713 27.6327 6.01638 27.5261 6.22968 27.3131L8.42585 25.1181C8.85245 24.6918 8.8526 24.0004 8.42629 23.5739C7.99969 23.1473 7.3084 23.1473 6.88195 23.5735Z" fill="white"/>
<path d="M24.3448 8.7458C24.6242 8.7458 24.9036 8.63922 25.1169 8.42607L27.3128 6.23106C27.7392 5.80461 27.7394 5.11332 27.3131 4.68672C26.8866 4.26012 26.1953 4.25998 25.7687 4.68657L23.5729 6.88158C23.1464 7.30789 23.1463 7.99932 23.5726 8.42577C23.7857 8.63922 24.0653 8.7458 24.3448 8.7458Z" fill="white"/>
<path d="M5.28864 16.0002C5.28864 15.3971 4.79972 14.9082 4.19666 14.9082H1.09197C0.488912 14.9082 0 15.3971 0 16.0002C0 16.6032 0.488912 17.0921 1.09197 17.0921H4.19666C4.79972 17.0921 5.28864 16.6032 5.28864 16.0002Z" fill="white"/>
<path d="M30.9081 14.9082H27.8019C27.1987 14.9082 26.71 15.3971 26.71 16.0002C26.71 16.6032 27.1987 17.0921 27.8019 17.0921H30.9081C31.5113 17.0921 32.0001 16.6032 32.0001 16.0002C32.0001 15.3973 31.5113 14.9082 30.9081 14.9082Z" fill="white"/>
<path d="M6.88203 8.42588C7.09519 8.63904 7.37473 8.74561 7.65413 8.74561C7.93353 8.74561 8.21307 8.63904 8.42623 8.42588C8.85268 7.99943 8.85268 7.308 8.42623 6.88155L6.23122 4.68654C5.80477 4.26009 5.11333 4.26009 4.68703 4.68654C4.26057 5.11299 4.26057 5.80442 4.68703 6.23073L6.88203 8.42588Z" fill="white"/>
<path d="M25.1182 23.5738C24.6918 23.1474 24.0003 23.1472 23.5739 23.5737C23.1473 24.0001 23.1473 24.6916 23.5737 25.1179L25.7684 27.3129C25.9817 27.5262 26.2611 27.6327 26.5407 27.6327C26.8201 27.6327 27.0996 27.5262 27.3128 27.313C27.7394 26.8866 27.7394 26.1951 27.3129 25.7688L25.1182 23.5738Z" fill="white"/>
<path d="M15.9994 7.50098C11.3131 7.50098 7.50049 11.3138 7.50049 16.0004C7.50049 20.6869 11.3131 24.4996 15.9994 24.4996C20.6861 24.4996 24.499 20.6869 24.499 16.0004C24.499 11.3138 20.686 7.50098 15.9994 7.50098ZM15.9994 22.3157C12.5173 22.3157 9.68443 19.4827 9.68443 16.0004C9.68443 12.5181 12.5173 9.68492 15.9994 9.68492C19.4819 9.68492 22.315 12.5181 22.315 16.0004C22.315 19.4827 19.4819 22.3157 15.9994 22.3157Z" fill="white"/>
</g>
<defs>
<clipPath id="clip0_28_898">
<rect width="32" height="32" fill="white"/>
</clipPath>
</defs>
</svg>
