<svg width="32" height="32" viewBox="0 0 32 32" fill="none" xmlns="http://www.w3.org/2000/svg">
<g clip-path="url(#clip0_28_858)">
<path d="M25.7981 30.9953L24.9617 19.3418C24.879 18.1893 24.1441 17.2371 23.1444 16.8178C23.3872 15.9992 23.1864 15.0791 22.5497 14.4345L15.4427 7.24001C16.9457 6.65483 17.8334 5.18109 17.8334 3.90429C17.9201 1.83469 16.3141 0.0901423 14.2435 0.00358069C11.0761 -0.129793 9.20619 3.49192 11.0829 5.99121C8.04983 6.96957 6.22391 9.84086 6.2176 12.4154L6.19922 21.6481C6.19822 22.1626 6.61403 22.5874 7.13827 22.5874L8.65145 22.5849L8.6367 31.015C8.63582 31.5325 9.05494 31.9533 9.57275 31.9541C9.57281 31.9541 13.259 31.9598 13.259 31.9598C13.7293 31.9598 14.127 31.6112 14.1884 31.1448L16.2488 15.5067C19.5613 18.2057 19.3269 18.0173 19.4205 18.0849C18.9052 18.9843 19.036 19.7175 19.0953 20.5447C19.1324 21.0611 19.582 21.4501 20.0975 21.4127C20.614 21.3756 21.0026 20.9269 20.9655 20.4105C20.9102 19.64 20.81 19.2589 21.1736 18.8395C21.8073 18.1087 23.0219 18.5063 23.0916 19.476L23.9279 31.1295C23.965 31.6465 24.4144 32.0347 24.9301 31.9975C25.4466 31.9605 25.8352 31.5118 25.7981 30.9953ZM14.1652 1.87694C15.1896 1.91981 16.0039 2.78168 15.9601 3.82579C15.8902 5.4909 13.8303 6.23558 12.7063 5.01453C11.581 3.79192 12.4997 1.808 14.1652 1.87694ZM12.437 30.0836L10.5134 30.0807L10.5265 22.5817L13.4262 22.5767L12.437 30.0836ZM13.4153 10.7795C13.014 10.4525 12.4234 10.5127 12.0964 10.9142C11.7694 11.3155 11.8296 11.9061 12.231 12.2331L14.5409 14.1152L13.6731 20.7013L8.07601 20.7108L8.09251 12.4386C8.21533 9.7333 10.423 7.60238 13.096 7.53257L21.2156 15.7522C21.4149 15.954 21.4224 16.2771 21.2327 16.4879C21.0401 16.7017 20.7145 16.7268 20.4913 16.545L13.4153 10.7795Z" fill="white"/>
</g>
<defs>
<clipPath id="clip0_28_858">
<rect width="32" height="32" fill="white"/>
</clipPath>
</defs>
</svg>
