<svg width="32" height="32" viewBox="0 0 32 32" fill="none" xmlns="http://www.w3.org/2000/svg">
<g clip-path="url(#clip0_28_862)">
<path d="M17.0042 0H12.9865C5.82275 0 0 5.81587 0 12.9865V17.1317C0 18.6235 0.741125 20.0082 1.9825 20.8359L4.35631 22.4184C5.73244 23.3359 7.43163 23.1221 8.54088 22.1955L18.3364 28.726L20.2407 31.5825C20.4214 31.8535 20.7187 32 21.0217 32C21.2004 32 21.3811 31.9491 21.5409 31.8425C21.9717 31.5553 22.0881 30.9732 21.8009 30.5424L19.95 27.7661V19.1634C19.9722 19.1639 19.9944 19.1651 20.0166 19.1651C20.7732 19.1651 21.4846 18.8704 22.0196 18.3354L24.1077 16.2472C24.3101 16.0449 24.5791 15.9334 24.8652 15.9334H31.0625C31.5802 15.9334 32 15.5137 32 14.9959C32 6.71237 25.2977 0 17.0042 0ZM18.075 26.2982L9.71838 20.727L10.9604 18.9521C11.7458 17.8303 12.9787 17.1184 14.3433 16.9991C15.7067 16.8796 17.0447 17.3663 18.0133 18.3348L18.0182 18.3398C18.0368 18.3583 18.0561 18.3758 18.0751 18.3937L18.075 26.2982ZM24.8653 14.0584C24.0784 14.0584 23.3385 14.3649 22.782 14.9214L20.6938 17.0096C20.5129 17.1905 20.2725 17.2901 20.0167 17.2901C19.7609 17.2901 19.5204 17.1904 19.3396 17.0096C19.3381 17.0081 19.3367 17.0067 19.3352 17.0053C17.974 15.6462 16.0951 14.9634 14.1797 15.1314C12.2618 15.2991 10.5286 16.2998 9.42437 17.8771L7.6485 20.4149C7.64288 20.4224 7.63731 20.4301 7.63188 20.4379C7.12913 21.1563 6.12631 21.3451 5.39644 20.8585L3.02262 19.2759C2.304 18.7968 1.875 17.9952 1.875 17.1317V12.9865C1.875 8.6385 4.836 3.1305 11.0458 2.04306V2.94587C11.0458 3.46362 11.4656 3.88337 11.9833 3.88337C12.5011 3.88337 12.9208 3.46362 12.9208 2.94587V1.87581C12.9427 1.87569 12.9646 1.875 12.9864 1.875H15.0625V2.94587C15.0625 3.46362 15.4823 3.88337 16 3.88337C16.5177 3.88337 16.9375 3.46362 16.9375 2.94587V1.875H17.0042C17.7102 1.875 18.4031 1.93194 19.0792 2.03988V2.94587C19.0792 3.46362 19.4989 3.88337 20.0167 3.88337C20.5344 3.88337 20.9542 3.46362 20.9542 2.94587V2.48319C25.9789 4.073 29.7054 8.61144 30.0919 14.0584H24.8653Z" fill="white"/>
</g>
<defs>
<clipPath id="clip0_28_862">
<rect width="32" height="32" fill="white"/>
</clipPath>
</defs>
</svg>
