<svg width="32" height="32" viewBox="0 0 32 32" fill="none" xmlns="http://www.w3.org/2000/svg">
<path d="M19.7582 17.9074H18.8187V16.2455C21.0049 15.1755 22.5141 12.9281 22.5141 10.3346V7.51606H26.2722V5.63704H22.5141V4.69754C22.5141 2.10732 20.4068 0 17.8166 0H14.0586C11.4683 0 9.36103 2.10732 9.36103 4.69754V10.3346C9.36103 12.9774 10.9281 15.2606 13.1817 16.305V17.9074H12.2422C7.57973 17.9074 3.78662 21.7005 3.78662 26.363V32H28.2138V26.363C28.2138 21.7006 24.4207 17.9074 19.7582 17.9074ZM14.0586 1.87901H17.8166C19.3707 1.87901 20.6351 3.14347 20.6351 4.69754V5.63704H11.24V4.69754C11.24 3.14347 12.5044 1.87901 14.0586 1.87901ZM11.24 10.3346V7.51606H20.6351V10.3346C20.3764 16.568 11.4965 16.5632 11.24 10.3346ZM16.9397 16.8349V18.8077C16.9397 19.3334 16.5303 19.7722 16.0272 19.786C15.4931 19.8001 15.0607 19.3738 15.0607 18.8469V16.8525C15.6868 16.9363 16.3198 16.9301 16.9397 16.8349ZM12.2422 19.7864H13.3415C14.2369 22.2712 17.7238 22.2854 18.645 19.7864H19.7582C23.3845 19.7864 26.3347 22.7366 26.3347 26.363V26.3688H22.5767V30.121H9.4236V26.3688H5.66557V26.363C5.66564 22.7366 8.61588 19.7864 12.2422 19.7864ZM5.66564 28.2479H7.54465V30.121H5.66564V28.2479ZM24.4558 30.121V28.2479H26.3348V30.121H24.4558Z" fill="white"/>
</svg>
