<svg width="32" height="32" viewBox="0 0 32 32" fill="none" xmlns="http://www.w3.org/2000/svg">
<path d="M25.7627 9.11009C25.2567 8.99952 24.7571 9.31984 24.6465 9.82565L23.949 13.0145C20.8901 11.7648 20.9927 11.8053 20.9927 11.8053C20.9983 11.7833 21.0625 11.4962 21.0675 11.4738C21.4333 10.0753 21.088 8.62896 20.2379 7.55071C21.035 7.13077 21.6761 6.41377 21.976 5.49309L22.2522 4.70096C22.2547 4.6939 22.257 4.68684 22.2593 4.67971C22.5528 3.76852 22.4733 2.79771 22.0357 1.94621C21.5982 1.09509 20.855 0.465025 19.9432 0.172212C18.0649 -0.430975 16.0455 0.601212 15.4355 2.47402L15.1594 3.26615C15.157 3.27321 15.1546 3.28027 15.1523 3.28734C14.8875 4.10934 14.9273 4.97952 15.2588 5.76721C15.146 5.79965 15.0342 5.83734 14.9235 5.88021L11.3197 5.1994C9.39328 4.83521 7.5314 6.07921 7.13096 7.99959L5.54209 15.6201C5.31371 16.7152 6.03821 17.7816 7.14521 17.9685L10.261 18.4945L8.83172 28.9585C8.72703 29.7247 8.95878 30.4985 9.46746 31.0814C9.9769 31.6651 10.7137 32 11.4888 32C12.805 32 13.9175 31.0586 14.134 29.7616L15.2437 23.116L15.9437 23.9205C16.7136 24.8051 17.1703 25.9369 17.2299 27.1073L17.3563 29.5915C17.425 30.942 18.5392 32 19.8927 32C21.293 32 22.4323 30.8617 22.4323 29.4626V28.7205L24.8798 17.5315C25.4738 17.2491 25.943 16.7152 26.1178 16.0299C26.3068 15.2872 26.1147 14.5378 25.6546 13.9918L26.4782 10.2263C26.5888 9.72046 26.2685 9.22071 25.7627 9.11009ZM19.0942 18.4044L19.4315 16.8085C20.5887 17.0693 22.175 17.4176 22.947 17.5926L21.8269 22.7135C21.5047 21.983 21.4317 21.9287 19.0942 18.4044ZM23.9955 15.0588C24.0092 15.0644 24.0228 15.0696 24.0367 15.0745C24.2403 15.1467 24.3538 15.3586 24.3008 15.567C24.2444 15.7881 24.0173 15.922 23.7948 15.8653C23.2728 15.7328 19.1667 14.8456 17.9823 14.5443C17.4965 14.4207 17.1833 13.9568 17.2505 13.4628L17.2533 13.4463C17.31 13.1318 17.7047 11.0285 17.7087 11.0074C17.8042 10.4985 17.4692 10.0085 16.9602 9.91302C16.4515 9.81752 15.9614 10.1526 15.8659 10.6615C15.8307 10.8493 15.4271 13.003 15.4098 13.101C15.4063 13.1209 15.4039 13.1373 15.4007 13.1572C15.4003 13.1594 15.3964 13.1835 15.3964 13.1838C15.3964 13.184 15.3964 13.1842 15.3963 13.1844C15.1951 14.57 16.0166 15.9925 17.6052 16.3826L17.3575 17.5546L12.4495 16.9225L14.0607 9.62859C14.0632 9.61696 14.0655 9.60534 14.0677 9.59365C14.2141 8.78615 14.699 8.09171 15.3646 7.73602C16.3219 7.22465 16.984 7.61034 17.7289 7.92171C18.8065 8.37246 19.5818 9.53346 19.2419 11.0462L19.172 11.3576C18.9425 12.2904 19.4438 13.2338 20.3448 13.5673L23.9955 15.0588ZM16.9339 3.87159L17.2093 3.08146C17.2118 3.0744 17.2142 3.06734 17.2165 3.06027C17.5053 2.16359 18.4712 1.6689 19.3698 1.9574C20.266 2.24527 20.7605 3.1994 20.4777 4.09534L20.2022 4.88552C20.1997 4.89259 20.1973 4.89965 20.195 4.90671C19.9063 5.8034 18.9403 6.29802 18.0417 6.00959C17.1455 5.72177 16.651 4.76746 16.9339 3.87159ZM10.9716 7.04184L12.9802 7.42127C12.6457 7.90077 12.4022 8.4524 12.2665 9.05109L8.94396 8.49015C9.17959 7.35996 10.1327 6.88352 10.9716 7.04184ZM7.37765 16.0028L8.56103 10.327L11.863 10.8845L10.5897 16.6485L7.45734 16.1196C7.40221 16.1103 7.36621 16.0578 7.37765 16.0028ZM19.8927 30.125C19.5384 30.125 19.2468 29.8488 19.2288 29.4961L19.1025 27.012C19.0217 25.4244 18.4022 23.8893 17.3582 22.6895L15.3535 20.386C14.835 19.7901 13.852 20.0661 13.7216 20.847L12.2846 29.4528C12.2196 29.8423 11.8849 30.125 11.4888 30.125C11.2518 30.125 11.0357 30.0268 10.8802 29.8486C10.7253 29.6712 10.6577 29.4452 10.6895 29.2122L12.1158 18.77L17.5511 19.4701L19.6805 22.6808C20.2542 23.5457 20.5573 24.5511 20.5573 25.5884V28.6052C20.5573 28.6075 20.5573 28.6097 20.5573 28.612V29.4626C20.5573 29.8278 20.2592 30.125 19.8927 30.125Z" fill="white"/>
</svg>
