<svg width="32" height="32" viewBox="0 0 32 32" fill="none" xmlns="http://www.w3.org/2000/svg">
<path d="M26.6477 7.73927C27.4752 6.92933 27.9901 5.80114 27.9901 4.55452C27.9901 2.09589 25.9899 0.0957031 23.5312 0.0957031C21.0726 0.0957031 19.0724 2.09589 19.0724 4.55452C19.0724 5.79714 19.5839 6.92208 20.4067 7.73152C19.3512 8.15002 18.382 8.7827 17.5534 9.60845C16.9201 10.2396 16.399 10.953 16 11.7247C15.6011 10.9529 15.0799 10.2396 14.4466 9.60845C13.6179 8.78264 12.6488 8.15002 11.5934 7.73152C12.4162 6.92214 12.9276 5.79714 12.9276 4.55458C12.9276 2.09595 10.9274 0.0957656 8.46875 0.0957656C6.01013 0.0957656 4.00994 2.09589 4.00994 4.55452C4.00994 5.80114 4.52481 6.92933 5.35231 7.73927C2.22131 8.99683 0 12.0896 0 15.6889C0 17.9193 1.00175 19.994 2.74837 21.381L16 31.9045L29.2516 21.381C30.9983 19.9939 32 17.9192 32 15.6889C32 12.0896 29.7787 8.99683 26.6477 7.73927ZM20.9474 4.55452C20.9474 3.12977 22.1066 1.9707 23.5312 1.9707C24.9559 1.9707 26.1151 3.12977 26.1151 4.55452C26.1151 5.97852 24.9571 7.13714 23.5335 7.13833C23.5327 7.13833 23.5319 7.13833 23.5311 7.13833C23.5306 7.13833 23.5301 7.13833 23.5296 7.13833C22.1056 7.13739 20.9474 5.9787 20.9474 4.55452ZM16 17.8083C15.0702 17.8083 14.3138 17.0518 14.3138 16.1221C14.3138 15.1923 15.0702 14.4359 16 14.4359C16.9298 14.4359 17.6862 15.1923 17.6862 16.1221C17.6862 17.0518 16.9298 17.8083 16 17.8083ZM8.46875 1.9707C9.89344 1.9707 11.0526 3.12977 11.0526 4.55452C11.0526 5.9787 9.89437 7.13739 8.47044 7.13833C8.46994 7.13833 8.46944 7.13833 8.46894 7.13833C8.46813 7.13833 8.46731 7.13833 8.4665 7.13833C7.04281 7.13714 5.88487 5.97852 5.88487 4.55452C5.88494 3.12977 7.04406 1.9707 8.46875 1.9707ZM1.875 15.6889C1.875 12.0206 4.82244 9.02595 8.44531 9.01339C8.45244 9.01333 8.45944 9.01333 8.46656 9.01333C8.46731 9.01333 8.468 9.01339 8.46875 9.01339C8.46931 9.01339 8.46988 9.01333 8.47038 9.01333C10.2269 9.01377 11.8784 9.6962 13.1231 10.9365C13.7014 11.5129 14.1587 12.1778 14.484 12.9005C13.2764 13.471 12.4387 14.7003 12.4387 16.122C12.4387 17.0414 12.7889 17.8805 13.3629 18.5129C11.7699 19.4295 10.6942 21.1479 10.6942 23.1139V25.2968L3.91438 19.9127C2.61831 18.8834 1.875 17.3439 1.875 15.6889ZM12.5693 26.7858V23.1139C12.5693 21.2222 14.1083 19.6832 16 19.6832C17.8917 19.6832 19.4307 21.2222 19.4307 23.1139V26.7858L16 29.5101L12.5693 26.7858ZM28.0856 19.9126L21.3057 25.2968V23.1139C21.3057 21.1479 20.23 19.4295 18.6371 18.5129C19.2111 17.8804 19.5613 17.0413 19.5613 16.122C19.5613 14.7002 18.7235 13.4709 17.516 12.9004C17.8414 12.1778 18.2986 11.5128 18.8769 10.9365C20.1216 9.69602 21.773 9.01364 23.5296 9.01327C23.5302 9.01327 23.5308 9.01333 23.5312 9.01333C23.532 9.01333 23.5327 9.01327 23.5334 9.01327C23.5405 9.01327 23.5476 9.01327 23.5546 9.01333C27.1776 9.02589 30.125 12.0205 30.125 15.6889C30.125 17.3439 29.3816 18.8834 28.0856 19.9126Z" fill="white"/>
</svg>
