<svg width="32" height="32" viewBox="0 0 32 32" fill="none" xmlns="http://www.w3.org/2000/svg">
<path d="M31.7666 23.039C31.498 22.7332 31.0629 22.6359 30.6895 22.7976C29.0451 23.5104 27.2959 23.8719 25.4905 23.8719C18.2749 23.8719 12.4046 18.0016 12.4046 10.7861C12.4046 7.32442 13.7439 4.06074 16.1759 1.59607C16.4614 1.30676 16.5279 0.86632 16.3406 0.505571C16.1532 0.144823 15.7551 -0.0544266 15.3539 0.0130107C11.6403 0.634508 8.24103 2.56138 5.7821 5.43868C3.29517 8.34854 1.92555 12.062 1.92555 15.895C1.92555 18.4525 2.53443 20.9739 3.69205 23.2341C2.99299 23.9714 2.53255 24.8823 2.35355 25.8686C1.00293 26.2083 0 27.4329 0 28.8875C0 30.6037 1.39624 31.9999 3.11243 31.9999H11.8122C12.5001 31.9999 13.1364 31.7752 13.6521 31.3958C15.0726 31.7965 16.5428 31.9999 18.0304 31.9999C20.8689 31.9999 23.6599 31.2509 26.1017 29.8338C28.4698 28.4596 30.4635 26.49 31.8674 24.1383C32.076 23.7889 32.0352 23.3447 31.7666 23.039ZM11.8122 30.125H3.11243C2.43005 30.125 1.87499 29.5698 1.87499 28.8875C1.87499 28.2052 2.43012 27.65 3.11243 27.65C3.13111 27.65 3.14974 27.6508 3.16824 27.6516C3.41999 27.6617 3.66567 27.5711 3.84948 27.3985C4.0333 27.226 4.13992 26.9867 4.14517 26.7347C4.18286 24.9437 5.67085 23.4865 7.46228 23.4865C9.25371 23.4865 10.7418 24.9436 10.7794 26.7347C10.7846 26.9867 10.8913 27.226 11.0751 27.3985C11.2589 27.5711 11.5041 27.662 11.7563 27.6516C11.7748 27.6508 11.7935 27.65 11.8122 27.65C12.4946 27.65 13.0496 28.2052 13.0496 28.8875C13.0496 29.5698 12.4945 30.125 11.8122 30.125ZM18.0304 30.125C16.9373 30.125 15.8552 30.0009 14.8004 29.7559C14.8808 29.4801 14.9246 29.189 14.9246 28.8876C14.9246 27.433 13.9217 26.2083 12.571 25.8687C12.3808 24.8204 11.8728 23.8571 11.098 23.097C10.1215 22.1392 8.83034 21.6116 7.46228 21.6116C6.67747 21.6116 5.91829 21.7861 5.22898 22.1149C4.29223 20.1872 3.80055 18.0561 3.80055 15.895C3.80055 9.86272 7.5256 4.63637 12.9734 2.58519C11.3833 5.00193 10.5296 7.83079 10.5296 10.786C10.5296 14.7822 12.0858 18.5393 14.9116 21.365C17.7373 24.1907 21.4942 25.7468 25.4905 25.7468C26.5433 25.7468 27.5795 25.6392 28.5918 25.4255C25.9181 28.3736 22.0724 30.125 18.0304 30.125Z" fill="white"/>
<path d="M18.7091 16.2478H27.4089C29.1251 16.2478 30.5214 14.8516 30.5214 13.1354C30.5214 11.6808 29.5184 10.4561 28.1678 10.1164C27.9776 9.06812 27.4695 8.10481 26.6947 7.34475C25.7183 6.38694 24.4271 5.85938 23.0591 5.85938C21.6909 5.85938 20.3998 6.38687 19.4233 7.34475C18.6486 8.10481 18.1405 9.06806 17.9503 10.1164C16.5996 10.4561 15.5967 11.6808 15.5967 13.1354C15.5966 14.8516 16.9929 16.2478 18.7091 16.2478ZM18.7091 11.8979C18.7279 11.8979 18.7464 11.8987 18.765 11.8994C19.0162 11.9099 19.2624 11.819 19.4462 11.6464C19.6301 11.4738 19.7366 11.2345 19.7419 10.9824C19.7796 9.1915 21.2676 7.73438 23.059 7.73438C24.8504 7.73438 26.3385 9.19144 26.3761 10.9825C26.3814 11.2345 26.488 11.4738 26.6717 11.6464C26.8556 11.8189 27.1021 11.9096 27.353 11.8994C27.3716 11.8986 27.3901 11.8979 27.4088 11.8979C28.0912 11.8979 28.6463 12.453 28.6463 13.1354C28.6463 13.8177 28.0912 14.3728 27.4088 14.3728H18.7091C18.0267 14.3728 17.4716 13.8177 17.4716 13.1354C17.4716 12.453 18.0267 11.8979 18.7091 11.8979Z" fill="white"/>
</svg>
