<svg width="128" height="41" viewBox="0 0 128 41" fill="none" xmlns="http://www.w3.org/2000/svg">
<path d="M54.008 13.696H47.48V9.632H65.4V13.696H58.872V32H54.008V13.696ZM64.8128 16.64H69.4848V18.848C70.1034 18.1013 70.9674 17.536 72.0768 17.152C73.1861 16.7467 74.4448 16.544 75.8528 16.544V20.224C74.3808 20.224 73.0794 20.448 71.9488 20.896C70.8394 21.344 70.0714 22.0267 69.6448 22.944V32H64.8128V16.64ZM81.877 32.48C79.9997 32.48 78.4637 32.0107 77.269 31.072C76.0957 30.112 75.509 28.8107 75.509 27.168C75.509 25.4613 76.0743 24.1387 77.205 23.2C78.3357 22.24 79.9357 21.76 82.005 21.76C82.9223 21.76 83.797 21.856 84.629 22.048C85.461 22.24 86.197 22.5067 86.837 22.848V22.464C86.837 21.504 86.4957 20.8 85.813 20.352C85.1303 19.904 84.085 19.68 82.677 19.68C80.7997 19.68 79.0717 20.032 77.493 20.736V17.216C78.1757 16.9173 79.061 16.672 80.149 16.48C81.237 16.2667 82.325 16.16 83.413 16.16C86.1863 16.16 88.2557 16.736 89.621 17.888C90.9863 19.0187 91.669 20.608 91.669 22.656V32H87.125V30.592C85.8237 31.8507 84.0743 32.48 81.877 32.48ZM83.189 29.28C83.9783 29.28 84.693 29.1307 85.333 28.832C85.973 28.5333 86.4743 28.1173 86.837 27.584V26.048C85.749 25.3227 84.5543 24.96 83.253 24.96C82.357 24.96 81.6637 25.152 81.173 25.536C80.7037 25.8987 80.469 26.4427 80.469 27.168C80.469 27.8507 80.7037 28.3733 81.173 28.736C81.6423 29.0987 82.3143 29.28 83.189 29.28ZM92.7263 16.64H96.7903L100.95 27.264L105.11 16.64H109.174L102.838 32H99.0623L92.7263 16.64ZM114.853 14.272C114.106 14.272 113.477 14.0267 112.965 13.536C112.453 13.0453 112.197 12.4267 112.197 11.68C112.197 10.9547 112.453 10.3467 112.965 9.856C113.477 9.344 114.106 9.088 114.853 9.088C115.599 9.088 116.229 9.344 116.741 9.856C117.253 10.3467 117.509 10.9547 117.509 11.68C117.509 12.4267 117.253 13.0453 116.741 13.536C116.229 14.0267 115.599 14.272 114.853 14.272ZM112.421 16.64H117.285V32H112.421V16.64ZM120.502 8.352H125.334V32H120.502V8.352Z" fill="#231C25"/>
<g clip-path="url(#clip0_41_185)">
<path d="M39.0004 20.4947C39.0004 31.8125 30.2709 40.9896 19.5052 40.9896C15.9297 40.9896 12.5782 39.9756 9.69434 38.2037C17.5859 39.064 22.8957 31.751 27.0753 26.0358L33.788 30.6141L34.3628 28.8422C34.3628 28.8422 32.5507 25.8207 31.1672 23.4752C29.9689 21.437 34.4603 14.8307 32.5897 13.5606C31.8882 13.0793 30.9042 13.7655 29.8325 14.7897C32.7261 11.9424 35.152 9.67881 36.8667 11.1639C38.2307 13.9806 39.0004 17.1455 39.0004 20.4947Z" fill="#4D40CA"/>
<path d="M29.5304 5.92009C22.0577 5.367 12.773 10.4574 8.1744 20.2593C9.85989 9.12594 18.112 1.55686 27.2311 1.66953C24.318 0.348268 21.0348 -0.245786 17.5956 0.0922102C8.2426 1.0345 0.760212 9.06448 0.0587381 18.9176C-0.126373 21.4987 0.146422 23.9875 0.799183 26.3023C1.33503 27.9001 2.25084 29.5184 3.54662 30.5734C10.8829 37.2821 19.7585 30.051 24.0258 23.9773L17.313 19.399L18.6186 18.1187C18.6186 18.1187 21.9798 18.6206 24.5811 18.9893C25.8964 19.1736 27.7767 16.8589 29.4817 15.1587C29.5986 15.046 29.7058 14.9333 29.8227 14.8309C29.8324 14.8207 29.8422 14.8207 29.8422 14.8104C32.7357 11.9631 35.1617 9.6995 36.8764 11.1846C36.8666 11.1642 36.8569 11.1334 36.8374 11.1129C35.4539 8.15292 32.6578 6.15566 29.5304 5.92009Z" fill="#FB5B32"/>
</g>
<defs>
<clipPath id="clip0_41_185">
<rect width="39" height="41" fill="white"/>
</clipPath>
</defs>
</svg>
